<svg width="28" height="24" viewBox="0 0 28 24" fill="none" xmlns="http://www.w3.org/2000/svg">
<path d="M9.52734 17.3438C7.82812 17.3438 6.94922 16.3008 6.70312 14.6367L4.82812 1.76953H0.867188C0.398438 1.76953 0 1.35938 0 0.878906C0 0.410156 0.398438 0 0.867188 0H4.98047C6.17578 0 6.50391 0.457031 6.62109 1.35938L6.84375 2.84766H25.9805C26.625 2.84766 27.0469 3.23438 27.0469 3.79688C27.0469 3.90234 27.0234 4.08984 27 4.24219L26.0625 10.4414C25.8164 12.1172 24.9375 13.1719 23.2266 13.1719H8.35547L8.54297 14.4023C8.64844 15.1172 9.05859 15.5859 9.72656 15.5859H23.2031C23.6602 15.5859 24.0586 15.9609 24.0586 16.4648C24.0586 16.9688 23.6602 17.3438 23.2031 17.3438H9.52734ZM25.0547 4.61719H7.10156L8.09766 11.4141H23.0508C23.7422 11.4141 24.1289 10.957 24.2227 10.2305L25.0547 4.61719ZM10.4531 23.0391C9.38672 23.0391 8.54297 22.207 8.54297 21.1406C8.54297 20.0859 9.38672 19.2422 10.4531 19.2422C11.5078 19.2422 12.3516 20.0859 12.3516 21.1406C12.3516 22.207 11.5078 23.0391 10.4531 23.0391ZM21.4102 23.0391C20.3555 23.0391 19.5 22.207 19.5 21.1406C19.5 20.0859 20.3555 19.2422 21.4102 19.2422C22.4766 19.2422 23.3203 20.0859 23.3203 21.1406C23.3203 22.207 22.4766 23.0391 21.4102 23.0391Z" fill="black"/>
</svg>
