<svg width="24" height="22" viewBox="0 0 24 22" fill="none" xmlns="http://www.w3.org/2000/svg">
<path d="M0 7.07812C0 2.92969 2.84766 0 6.64453 0C8.8125 0 10.5938 1.04297 11.6367 2.61328C12.7031 1.03125 14.4609 0 16.6289 0C20.4258 0 23.2734 2.92969 23.2734 7.07812C23.2734 12.0703 19.0898 16.9805 12.4922 21.1992C12.2344 21.3516 11.8828 21.5156 11.6367 21.5156C11.3906 21.5156 11.0391 21.3516 10.793 21.1992C4.18359 16.9805 0 12.0703 0 7.07812ZM1.88672 7.07812C1.88672 11.4375 6.49219 16.1367 11.4023 19.3945C11.5078 19.4766 11.5898 19.5352 11.6367 19.5352C11.6836 19.5352 11.7656 19.4766 11.8828 19.3945C16.7812 16.1367 21.3867 11.4375 21.3867 7.07812C21.3867 3.96094 19.3711 1.88672 16.6523 1.88672C14.4609 1.88672 13.2422 3.28125 12.4336 4.42969C12.0938 4.88672 11.918 5.02734 11.6367 5.02734C11.3555 5.02734 11.1562 4.89844 10.8398 4.42969C10.0898 3.25781 8.82422 1.88672 6.62109 1.88672C3.90234 1.88672 1.88672 3.96094 1.88672 7.07812Z" fill="black"/>
</svg>
