<svg width="226" height="195" viewBox="0 0 226 195" fill="none" xmlns="http://www.w3.org/2000/svg">
<path d="M71.742 112.651C71.857 112.682 71.9698 112.73 72.0868 112.743C76.4256 113.23 80.7677 113.477 85.1075 112.786C87.0234 112.481 88.9236 112.085 90.6152 111.064C91.1917 110.716 91.6845 110.252 91.5915 109.498C91.505 108.792 90.9722 108.356 90.3561 108.214C89.3131 107.974 88.2289 107.725 87.172 107.76C81.604 107.944 76.6303 110.094 71.742 112.651ZM119.554 103.426C115.202 104.458 111.173 105.785 107.583 108.126C105.977 109.172 104.523 110.476 103.115 111.785C102.076 112.751 101.438 114.026 101.137 115.439C100.63 117.814 102.107 119.455 104.536 119.217C106.556 119.02 108.208 118.047 109.685 116.752C113.886 113.065 116.779 108.412 119.554 103.426ZM68.9624 113.156C66.3252 112.42 63.7231 111.815 61.2047 110.963C55.5213 109.043 50.3599 106.088 45.3177 102.878C35.7964 96.815 27.8185 89.1492 21.165 80.0964C17.1656 74.6545 13.9046 68.8151 12.4222 62.162C10.2517 52.4236 11.9859 43.3551 17.6481 35.154C22.6666 27.8839 29.8891 24.3875 38.6171 23.7835C45.7478 23.2898 51.9791 25.6513 57.5942 29.8585C62.3386 33.4139 66.1207 37.8512 69.3696 42.7672C70.3378 44.2326 71.3518 45.6678 72.3406 47.1194C72.4784 47.3214 72.592 47.5395 72.7171 47.7498C72.7964 47.7098 72.8759 47.6705 72.9554 47.6311C72.9774 47.2692 73.0019 46.9071 73.0215 46.5453C73.5405 37.1426 75.5286 28.0776 79.5716 19.5426C82.2121 13.9686 85.8369 9.09739 90.8743 5.39184C93.8049 3.23643 96.9741 1.6024 100.661 1.16629C104.042 0.766446 107.166 1.45209 110.003 3.3565C113.624 5.78652 116.548 8.90043 119.007 12.4695C124.214 20.0263 127.205 28.4589 128.837 37.4021C130.955 49.0087 131.148 60.6656 129.619 72.359C128.474 81.1178 126.508 89.6612 123.036 97.8186C122.419 99.2682 121.746 100.694 121.074 102.186C121.212 102.206 121.325 102.251 121.428 102.235C126.99 101.347 132.563 100.521 138.11 99.5489C150.241 97.4221 161.695 93.2449 172.766 87.9697C180.497 84.2859 187.906 80.0396 194.807 74.9583C204.514 67.8102 212.275 59.0147 217.639 48.1789C219.017 45.3958 220.539 42.6821 222.062 39.974C222.458 39.2706 223.085 38.6866 223.655 38.0959C223.786 37.961 224.123 38.0241 224.366 37.9965C224.283 38.2047 224.237 38.4397 224.111 38.6177C223.404 39.614 222.562 40.5343 221.977 41.5957C219.91 45.3499 218.023 49.204 215.897 52.9231C210.687 62.0392 203.637 69.5597 195.112 75.6396C178.438 87.5294 160.108 95.81 139.978 99.941C134.885 100.986 129.702 101.601 124.563 102.428C123.421 102.612 122.279 102.814 121.159 103.092C120.805 103.18 120.399 103.478 120.225 103.794C118.372 107.16 116.41 110.461 113.915 113.398C112.636 114.903 111.232 116.319 109.763 117.64C108.303 118.952 106.562 119.801 104.549 119.97C101.651 120.214 99.8409 118.206 100.391 115.352C100.715 113.671 101.58 112.278 102.729 111.048C105.337 108.255 108.554 106.351 112.084 105.004C114.449 104.101 116.908 103.443 119.338 102.717C119.814 102.575 120.104 102.366 120.326 101.922C123.958 94.6447 126.325 86.9595 127.815 78.9885C129.266 71.2278 130.008 63.4006 129.841 55.5066C129.601 44.081 128.123 32.8627 123.54 22.2564C120.942 16.2444 117.574 10.7091 112.59 6.3025C110.66 4.59644 108.615 3.04285 106.083 2.31737C102.831 1.38635 99.6498 1.73817 96.5603 3.0136C92.5021 4.68902 89.1639 7.34971 86.3081 10.6296C81.7225 15.8947 78.7937 22.0273 76.8761 28.6781C75.0568 34.987 73.918 41.4125 73.6033 47.9762C73.5972 48.1009 73.5814 48.2255 73.5698 48.3501C73.521 48.8639 73.3208 49.0795 72.8637 48.6719C72.4911 48.3407 72.0831 48.0241 71.7966 47.6259C70.8292 46.2819 69.8818 44.9219 68.9745 43.5367C66.1398 39.2082 62.9001 35.2279 58.9213 31.8807C55.0004 28.5828 50.6672 26.0185 45.5859 25.0079C35.9832 23.0979 23.2906 26.0362 16.6538 38.1044C11.0692 48.2595 10.8993 58.6586 15.5931 69.184C18.2747 75.198 22.1134 80.4578 26.3868 85.4355C35.275 95.7903 46.041 103.615 58.5081 109.143C61.994 110.69 65.6707 111.658 69.4259 112.302C69.8973 112.383 70.4832 112.282 70.9097 112.062C75.3301 109.77 79.8951 107.863 84.8668 107.195C86.4855 106.978 88.1788 107.083 89.8128 107.263C91.2705 107.424 92.2325 108.39 92.3573 109.387C92.4873 110.427 91.8206 111.384 90.4048 112.054C87.8368 113.267 85.0716 113.645 82.2761 113.853C78.5434 114.13 74.8342 113.853 71.131 113.373C70.6567 113.312 70.072 113.435 69.658 113.676C62.7803 117.682 56.8573 122.868 51.316 128.514C46.1409 133.787 41.2326 139.304 36.7399 145.161C27.6104 157.065 18.5379 169.013 9.54073 181.017C7.06258 184.323 4.9314 187.887 2.64853 191.337C2.47029 191.607 2.38175 191.937 2.19561 192.199C2.08959 192.349 1.87044 192.419 1.70203 192.524C1.66043 192.325 1.52771 192.086 1.59406 191.932C1.81125 191.429 2.07837 190.943 2.36609 190.475C7.5867 181.979 13.5507 174.002 19.623 166.107C26.2915 157.436 32.9402 148.747 39.8029 140.231C45.666 132.954 52.0089 126.08 59.274 120.144C62.1839 117.767 65.3597 115.712 68.415 113.512C68.5928 113.384 68.7823 113.273 68.9624 113.156Z" stroke="#FF742E" stroke-width="2"/>
</svg>
