<svg width="141" height="30" viewBox="0 0 141 30" fill="none" xmlns="http://www.w3.org/2000/svg">
<path d="M0.347656 29V0.992188H12.3008C18.2773 0.992188 21.5195 3.16016 21.5195 7.65234V7.82812C21.5195 11.168 19.6055 13.3164 16.7148 14.1758C19.8398 14.8984 22.1445 16.793 22.1445 20.8945V21.207C22.1445 26.9688 18.0039 29 11.6953 29H0.347656ZM8.92188 23.668H10.2695C12.1836 23.668 13.1992 22.7305 13.1992 20.6602V19.6836C13.1992 17.8672 12.1836 17.0078 10.3477 17.0078H8.92188V23.668ZM8.92188 11.793H10.3281C11.9883 11.793 12.9648 10.9531 12.9648 9.09766V8.55078C12.9648 6.92969 11.9883 6.28516 10.3477 6.28516H8.92188V11.793Z" fill="black"/>
<path d="M45.25 29H36.6562V18.1211H35.4648C33.2969 18.1211 32.3203 18.9023 32.3203 20.6797V29H23.707V20.8359C23.707 17.3203 25.2305 16.1094 28.9023 15.4648C25.9727 14.7227 23.7266 12.7695 23.7266 8.35547C23.7266 3.31641 26.9102 0.992188 33.668 0.992188H45.25V29ZM32.2422 9.625C32.2422 11.9297 33.375 12.8086 35.3086 12.8086H36.6562V6.46094H35.3086C33.2969 6.46094 32.2422 7.26172 32.2422 9.27344V9.625Z" fill="black"/>
<path d="M53.9023 17.3203V11.6953H57.2617C59.4492 11.6953 59.8594 10.9922 59.8594 9.05859V8.60938C59.8594 7.4375 59.293 6.59766 58.0039 6.59766C56.7344 6.59766 56.0898 7.39844 56.0898 8.96094V9.66406H47.2227C47.2617 4.11719 50.9727 0.40625 58.375 0.40625C65.0742 0.40625 68.4141 3.57031 68.4141 7.88672C68.4141 11.3047 66.5195 13.4727 63.5508 14.3125C66.5977 15.0938 68.8047 17.1055 68.8047 21.0508C68.8047 26.3242 65.1328 29.5859 57.9648 29.5859C49.7227 29.5859 46.832 25.7969 46.8906 19.4297H55.8359V20.6016C55.8359 22.3789 56.4023 23.375 57.8477 23.375C59.1953 23.375 59.8398 22.4375 59.8398 21.1484V20.1523C59.8398 18.1602 58.9414 17.3203 57.0664 17.3203H53.9023Z" fill="black"/>
<path d="M68.9023 29L75.2109 0.992188H87.6133L94.0195 29H85.0547L84.1367 23.707H78.6289L77.75 29H68.9023ZM79.6836 17.5156H83.1016L81.4023 7.53516L79.6836 17.5156Z" fill="black"/>
<path d="M95.2695 29V0.992188H103.844V11.3438H108.746V0.992188H117.32V29H108.746V17.8086H103.844V29H95.2695Z" fill="black"/>
<path d="M120.035 29V0.992188H128.609V10.1523H130.23C136.598 10.1523 140.66 12.4375 140.66 19.1367V19.5664C140.66 26.6953 136.539 29 130.406 29H120.035ZM128.609 23.4531H129.098C130.973 23.4531 132.125 22.418 132.125 19.8594V18.9805C132.125 16.4805 131.031 15.6797 129.098 15.6797H128.609V23.4531Z" fill="black"/>
</svg>
