<svg width="28" height="28" viewBox="0 0 28 28" fill="none" xmlns="http://www.w3.org/2000/svg">
<path fill-rule="evenodd" clip-rule="evenodd" d="M1.79053 3.62937C0.666992 5.31086 0.666992 7.65163 0.666992 12.3332V15.6665C0.666992 20.348 0.666992 22.6888 1.79053 24.3703C2.27692 25.0982 2.90192 25.7232 3.62986 26.2096C5.31135 27.3332 7.65212 27.3332 12.3337 27.3332H15.667C20.3485 27.3332 22.6893 27.3332 24.3708 26.2096C25.0987 25.7232 25.7237 25.0982 26.2101 24.3703C27.3337 22.6888 27.3337 20.348 27.3337 15.6665V12.3332C27.3337 7.65163 27.3337 5.31086 26.2101 3.62937C25.7237 2.90143 25.0987 2.27643 24.3708 1.79004C22.6893 0.666504 20.3485 0.666504 15.667 0.666504H12.3337C7.65212 0.666504 5.31135 0.666504 3.62986 1.79004C2.90192 2.27643 2.27692 2.90143 1.79053 3.62937ZM5.67891 13.0754C9.99759 11.1939 12.8792 9.9531 14.32 9.35307C18.4331 7.6419 19.2905 7.34374 19.8461 7.33448C20.0508 7.33012 20.2517 7.39039 20.4202 7.50671C20.5385 7.60941 20.6139 7.75287 20.6313 7.90857C20.6609 8.10154 20.669 8.29718 20.6554 8.49193C20.4332 10.8346 19.4683 16.5182 18.9776 19.1423C18.7702 20.2535 18.3609 20.6239 17.9646 20.6609C17.2849 20.7239 16.7312 20.3313 16.1182 19.8942C16.1009 19.8819 16.0835 19.8695 16.0661 19.8571C15.9212 19.7537 15.7719 19.6471 15.6182 19.5479C14.9367 19.0997 14.4107 18.7423 13.8848 18.3831C13.4014 18.0534 12.9162 17.7256 12.3106 17.3256C11.0532 16.4959 11.5791 15.9885 12.2829 15.3107C12.4008 15.1978 12.5168 15.0829 12.631 14.9663C12.6732 14.9225 12.8493 14.7585 13.1062 14.5191C13.1648 14.4645 13.2276 14.4059 13.294 14.344L13.3547 14.2875C14.5167 13.2063 16.6581 11.2138 16.7127 10.9791C16.7219 10.9402 16.7312 10.7939 16.6441 10.7179C16.559 10.6402 16.4293 10.6661 16.3367 10.6883C16.2071 10.7179 14.1237 12.0939 10.0883 14.8181C9.49757 15.2255 8.96237 15.4218 8.48087 15.4107C7.95307 15.3996 6.93451 15.1126 6.17893 14.8663L5.85484 14.7644L5.85232 14.7636C5.08506 14.5214 4.52152 14.3435 4.57701 13.894C4.61035 13.6273 4.97888 13.3532 5.67891 13.0754Z" fill="black" fill-opacity="0.3"/>
</svg>
