<svg width="28" height="28" viewBox="0 0 28 28" fill="none" xmlns="http://www.w3.org/2000/svg">
<path fill-rule="evenodd" clip-rule="evenodd" d="M1.79004 3.62937C0.666504 5.31086 0.666504 7.65163 0.666504 12.3332V15.6665C0.666504 20.348 0.666504 22.6888 1.79004 24.3703C2.27643 25.0982 2.90143 25.7232 3.62937 26.2096C5.31086 27.3332 7.65163 27.3332 12.3332 27.3332H15.6665C20.348 27.3332 22.6888 27.3332 24.3703 26.2096C25.0982 25.7232 25.7232 25.0982 26.2096 24.3703C27.3332 22.6888 27.3332 20.348 27.3332 15.6665V12.3332C27.3332 7.65163 27.3332 5.31086 26.2096 3.62937C25.7232 2.90143 25.0982 2.27643 24.3703 1.79004C22.6888 0.666504 20.348 0.666504 15.6665 0.666504H12.3332C7.65163 0.666504 5.31086 0.666504 3.62937 1.79004C2.90143 2.27643 2.27643 2.90143 1.79004 3.62937ZM5.67842 13.0754C9.9971 11.1939 12.8787 9.9531 14.3195 9.35307C18.4326 7.6419 19.2901 7.34374 19.8456 7.33448C20.0503 7.33012 20.2512 7.39039 20.4197 7.50671C20.5381 7.60941 20.6134 7.75287 20.6309 7.90857C20.6604 8.10154 20.6685 8.29718 20.6549 8.49193C20.4327 10.8346 19.4678 16.5182 18.9771 19.1423C18.7697 20.2535 18.3604 20.6239 17.9641 20.6609C17.2844 20.7239 16.7307 20.3313 16.1177 19.8942C16.1004 19.8819 16.0831 19.8695 16.0656 19.8571C15.9207 19.7537 15.7714 19.6471 15.6177 19.5479C14.9362 19.0997 14.4102 18.7423 13.8843 18.3831C13.4009 18.0534 12.9157 17.7256 12.3102 17.3256C11.0527 16.4959 11.5786 15.9885 12.2824 15.3107C12.4003 15.1978 12.5164 15.0829 12.6305 14.9663C12.6728 14.9225 12.8488 14.7585 13.1057 14.5191C13.1643 14.4645 13.2271 14.4059 13.2935 14.344L13.3542 14.2875C14.5162 13.2063 16.6576 11.2138 16.7122 10.9791C16.7214 10.9402 16.7307 10.7939 16.6437 10.7179C16.5585 10.6402 16.4288 10.6661 16.3362 10.6883C16.2066 10.7179 14.1232 12.0939 10.0878 14.8181C9.49709 15.2255 8.96188 15.4218 8.48038 15.4107C7.95258 15.3996 6.93402 15.1126 6.17844 14.8663L5.85435 14.7644L5.85183 14.7636C5.08457 14.5214 4.52103 14.3435 4.57652 13.894C4.60986 13.6273 4.97839 13.3532 5.67842 13.0754Z" fill="black" fill-opacity="0.2"/>
</svg>
