<svg width="28" height="28" viewBox="0 0 28 28" fill="none" xmlns="http://www.w3.org/2000/svg">
<path fill-rule="evenodd" clip-rule="evenodd" d="M1.79053 3.62937C0.666992 5.31086 0.666992 7.65163 0.666992 12.3332V15.6665C0.666992 20.348 0.666992 22.6888 1.79053 24.3703C2.27692 25.0982 2.90192 25.7232 3.62986 26.2096C5.31135 27.3332 7.65212 27.3332 12.3337 27.3332H15.667C20.3485 27.3332 22.6893 27.3332 24.3708 26.2096C25.0987 25.7232 25.7237 25.0982 26.2101 24.3703C27.3337 22.6888 27.3337 20.348 27.3337 15.6665V12.3332C27.3337 7.65163 27.3337 5.31086 26.2101 3.62937C25.7237 2.90143 25.0987 2.27643 24.3708 1.79004C22.6893 0.666504 20.3485 0.666504 15.667 0.666504H12.3337C7.65212 0.666504 5.31135 0.666504 3.62986 1.79004C2.90192 2.27643 2.27692 2.90143 1.79053 3.62937ZM7.61134 9.55539H5.66689C5.11134 9.55539 5.00022 9.81692 5.00022 10.1053C5.00022 10.6203 5.65943 13.1747 8.06961 16.5531C9.67638 18.8603 11.9402 20.111 14.0002 20.111C15.2362 20.111 15.3891 19.8332 15.3891 19.3547V17.611C15.3891 17.0554 15.5062 16.9445 15.8976 16.9445C16.186 16.9445 16.6804 17.0887 17.834 18.2011C18.2265 18.5936 18.5214 18.9216 18.7616 19.1888C19.3283 19.8192 19.5905 20.111 20.1113 20.111H22.0558C22.6113 20.111 22.8891 19.8332 22.7289 19.285C22.5535 18.7386 21.9241 17.946 21.0888 17.0063C20.859 16.7348 20.571 16.4526 20.316 16.2029C20.0681 15.96 19.8514 15.7477 19.7498 15.6055C19.4614 15.2347 19.5438 15.0699 19.7498 14.7403L19.7844 14.6913C20.0774 14.2748 22.1365 11.3222 22.366 10.2701C22.4896 9.85814 22.366 9.55539 21.778 9.55539H19.8336C19.3392 9.55539 19.1112 9.81692 18.9876 10.1053C18.9876 10.1053 17.9988 12.5155 16.598 14.0811C16.1448 14.5343 15.9388 14.6785 15.6916 14.6785C15.568 14.6785 15.3891 14.5343 15.3891 14.1223V10.2701C15.3891 9.77574 15.2456 9.55539 14.8336 9.55539H11.778C11.469 9.55539 11.2832 9.78486 11.2832 10.0023C11.2832 10.1813 11.3853 10.3076 11.5155 10.4689C11.7264 10.73 12.0112 11.0824 12.0558 11.8975V14.7609C12.0558 15.3887 11.9424 15.5025 11.6952 15.5025C11.036 15.5025 9.43257 13.0816 8.48158 10.3113C8.29521 9.77289 8.10828 9.55539 7.61134 9.55539Z" fill="black" fill-opacity="0.3"/>
</svg>
