<svg width="28" height="28" viewBox="0 0 28 28" fill="none" xmlns="http://www.w3.org/2000/svg">
<path fill-rule="evenodd" clip-rule="evenodd" d="M1.79004 3.62937C0.666504 5.31086 0.666504 7.65163 0.666504 12.3332V15.6665C0.666504 20.348 0.666504 22.6888 1.79004 24.3703C2.27643 25.0982 2.90143 25.7232 3.62937 26.2096C5.31086 27.3332 7.65163 27.3332 12.3332 27.3332H15.6665C20.348 27.3332 22.6888 27.3332 24.3703 26.2096C25.0982 25.7232 25.7232 25.0982 26.2096 24.3703C27.3332 22.6888 27.3332 20.348 27.3332 15.6665V12.3332C27.3332 7.65163 27.3332 5.31086 26.2096 3.62937C25.7232 2.90143 25.0982 2.27643 24.3703 1.79004C22.6888 0.666504 20.348 0.666504 15.6665 0.666504H12.3332C7.65163 0.666504 5.31086 0.666504 3.62937 1.79004C2.90143 2.27643 2.27643 2.90143 1.79004 3.62937ZM7.61085 9.55539H5.6664C5.11085 9.55539 4.99973 9.81692 4.99973 10.1053C4.99973 10.6203 5.65894 13.1747 8.06912 16.5531C9.6759 18.8603 11.9397 20.111 13.9997 20.111C15.2357 20.111 15.3886 19.8332 15.3886 19.3547V17.611C15.3886 17.0554 15.5057 16.9445 15.8971 16.9445C16.1855 16.9445 16.6799 17.0887 17.8335 18.2011C18.226 18.5936 18.5209 18.9216 18.7611 19.1888C19.3278 19.8192 19.59 20.111 20.1108 20.111H22.0553C22.6108 20.111 22.8886 19.8332 22.7284 19.285C22.553 18.7386 21.9236 17.946 21.0883 17.0063C20.8585 16.7348 20.5705 16.4526 20.3155 16.2029C20.0676 15.96 19.8509 15.7477 19.7493 15.6055C19.4609 15.2347 19.5433 15.0699 19.7493 14.7403L19.7839 14.6913C20.0769 14.2748 22.136 11.3222 22.3655 10.2701C22.4891 9.85814 22.3655 9.55539 21.7775 9.55539H19.8331C19.3387 9.55539 19.1107 9.81692 18.9871 10.1053C18.9871 10.1053 17.9983 12.5155 16.5975 14.0811C16.1443 14.5343 15.9383 14.6785 15.6911 14.6785C15.5675 14.6785 15.3886 14.5343 15.3886 14.1223V10.2701C15.3886 9.77574 15.2451 9.55539 14.8331 9.55539H11.7775C11.4686 9.55539 11.2827 9.78486 11.2827 10.0023C11.2827 10.1813 11.3848 10.3076 11.515 10.4689C11.7259 10.73 12.0107 11.0824 12.0553 11.8975V14.7609C12.0553 15.3887 11.9419 15.5025 11.6947 15.5025C11.0355 15.5025 9.43209 13.0816 8.48109 10.3113C8.29472 9.77289 8.10779 9.55539 7.61085 9.55539Z" fill="black"/>
</svg>
