<svg width="28" height="28" viewBox="0 0 28 28" fill="none" xmlns="http://www.w3.org/2000/svg">
<path fill-rule="evenodd" clip-rule="evenodd" d="M0.666992 12.3332C0.666992 7.65163 0.666992 5.31086 1.79053 3.62937C2.27692 2.90143 2.90192 2.27643 3.62986 1.79004C5.31135 0.666504 7.65212 0.666504 12.3337 0.666504H15.667C20.3485 0.666504 22.6893 0.666504 24.3708 1.79004C25.0987 2.27643 25.7237 2.90143 26.2101 3.62937C27.3337 5.31086 27.3337 7.65163 27.3337 12.3332V15.6665C27.3337 20.348 27.3337 22.6888 26.2101 24.3703C25.7237 25.0982 25.0987 25.7232 24.3708 26.2096C22.6893 27.3332 20.3485 27.3332 15.667 27.3332H12.3337C7.65212 27.3332 5.31135 27.3332 3.62986 26.2096C2.90192 25.7232 2.27692 25.0982 1.79053 24.3703C0.666992 22.6888 0.666992 20.348 0.666992 15.6665V12.3332ZM7.13461 17.9369L6.00033 22.086L10.2297 20.9694C11.3954 21.6127 12.7055 21.9493 14.0369 21.9475C18.4281 21.9475 22.0003 18.3524 22.0003 13.9343C22.0003 11.7905 21.1743 9.7773 19.6674 8.26109C18.1604 6.74489 16.1595 5.91357 14.029 5.91357C9.63781 5.91357 6.06515 9.50828 6.07353 13.9343C6.0714 15.3383 6.43725 16.7184 7.13461 17.9369ZM10.6592 19.6732L10.4162 19.5264L7.89581 20.1954L8.56835 17.7336L8.41444 17.4805C7.74983 16.4212 7.40143 15.1903 7.40143 13.9347C7.40143 10.2668 10.3747 7.27499 14.0286 7.27499C15.7948 7.27499 17.4636 7.9762 18.7121 9.23088C19.9598 10.4865 20.6482 12.1654 20.6482 13.9427C20.6482 17.6106 17.6749 20.6024 14.0294 20.6024C12.8429 20.6015 11.6786 20.2805 10.6592 19.6732ZM11.5983 10.2345C11.7359 10.2345 11.8982 10.2424 12.0437 10.5767C12.1408 10.7944 12.2981 11.1862 12.429 11.5124C12.5384 11.7848 12.6294 12.0114 12.6514 12.0523C12.6999 12.1498 12.7326 12.2724 12.6678 12.4025C12.6476 12.4384 12.6306 12.4712 12.6145 12.5022C12.5719 12.5841 12.5357 12.6539 12.4653 12.7368C12.4353 12.7722 12.4036 12.8107 12.3716 12.8497C12.3002 12.9365 12.2269 13.0256 12.1654 13.0874C12.06 13.1853 11.963 13.2911 12.0764 13.4949L12.0934 13.5224C12.2323 13.7468 12.6202 14.3735 13.1859 14.8805C13.8362 15.4649 14.3972 15.7051 14.6738 15.8236C14.7214 15.8439 14.7606 15.8607 14.7904 15.875C14.9848 15.9729 15.1061 15.9566 15.2195 15.8261C15.3412 15.696 15.7218 15.2475 15.8514 15.0437C15.9811 14.8479 16.1108 14.8805 16.2969 14.9458C16.4414 14.9967 17.0573 15.3014 17.4216 15.4817C17.5272 15.534 17.6123 15.5761 17.6578 15.5981C17.7098 15.6263 17.7577 15.6505 17.8009 15.6724C17.9197 15.7324 18.0033 15.7747 18.0389 15.8345C18.0874 15.916 18.0874 16.3235 17.9255 16.7879C17.7553 17.2611 16.9452 17.7013 16.5809 17.7418C16.5494 17.7454 16.5182 17.7496 16.4862 17.7539C16.1475 17.7994 15.7304 17.8554 14.1906 17.2448C12.3155 16.4976 11.079 14.6532 10.829 14.2803C10.809 14.2504 10.7953 14.23 10.7881 14.2203C10.6885 14.0868 9.978 13.1341 9.978 12.1502C9.978 11.2243 10.4275 10.7436 10.6369 10.5195L10.6748 10.4788C10.8609 10.275 11.0797 10.2261 11.2093 10.2261C11.3469 10.2261 11.4766 10.2261 11.5983 10.2345Z" fill="black" fill-opacity="0.3"/>
</svg>
