<svg width="28" height="28" viewBox="0 0 28 28" fill="none" xmlns="http://www.w3.org/2000/svg">
<path fill-rule="evenodd" clip-rule="evenodd" d="M0.666504 12.3332C0.666504 7.65163 0.666504 5.31086 1.79004 3.62937C2.27643 2.90143 2.90143 2.27643 3.62937 1.79004C5.31086 0.666504 7.65163 0.666504 12.3332 0.666504H15.6665C20.348 0.666504 22.6888 0.666504 24.3703 1.79004C25.0982 2.27643 25.7232 2.90143 26.2096 3.62937C27.3332 5.31086 27.3332 7.65163 27.3332 12.3332V15.6665C27.3332 20.348 27.3332 22.6888 26.2096 24.3703C25.7232 25.0982 25.0982 25.7232 24.3703 26.2096C22.6888 27.3332 20.348 27.3332 15.6665 27.3332H12.3332C7.65163 27.3332 5.31086 27.3332 3.62937 26.2096C2.90143 25.7232 2.27643 25.0982 1.79004 24.3703C0.666504 22.6888 0.666504 20.348 0.666504 15.6665V12.3332ZM7.13413 17.9369L5.99984 22.086L10.2292 20.9694C11.3949 21.6127 12.705 21.9493 14.0364 21.9475C18.4276 21.9475 21.9998 18.3524 21.9998 13.9343C21.9998 11.7905 21.1738 9.7773 19.6669 8.26109C18.1599 6.74489 16.159 5.91357 14.0285 5.91357C9.63732 5.91357 6.06467 9.50828 6.07305 13.9343C6.07091 15.3383 6.43676 16.7184 7.13413 17.9369ZM10.6587 19.6732L10.4157 19.5264L7.89532 20.1954L8.56786 17.7336L8.41395 17.4805C7.74934 16.4212 7.40094 15.1903 7.40094 13.9347C7.40094 10.2668 10.3743 7.27499 14.0281 7.27499C15.7943 7.27499 17.4631 7.9762 18.7116 9.23088C19.9593 10.4865 20.6477 12.1654 20.6477 13.9427C20.6477 17.6106 17.6744 20.6024 14.0289 20.6024C12.8424 20.6015 11.6781 20.2805 10.6587 19.6732ZM11.5978 10.2345C11.7354 10.2345 11.8977 10.2424 12.0432 10.5767C12.1403 10.7944 12.2976 11.1862 12.4285 11.5124C12.5379 11.7848 12.6289 12.0114 12.6509 12.0523C12.6995 12.1498 12.7321 12.2724 12.6673 12.4025C12.6471 12.4384 12.6301 12.4712 12.614 12.5022C12.5715 12.5841 12.5352 12.6539 12.4648 12.7368C12.4348 12.7722 12.4031 12.8107 12.3711 12.8497C12.2997 12.9365 12.2264 13.0256 12.1649 13.0874C12.0595 13.1853 11.9625 13.2911 12.0759 13.4949L12.0929 13.5224C12.2318 13.7468 12.6197 14.3735 13.1855 14.8805C13.8357 15.4649 14.3967 15.7051 14.6734 15.8236C14.7209 15.8439 14.7601 15.8607 14.7899 15.875C14.9844 15.9729 15.1056 15.9566 15.219 15.8261C15.3407 15.696 15.7213 15.2475 15.8509 15.0437C15.9806 14.8479 16.1103 14.8805 16.2964 14.9458C16.4409 14.9967 17.0568 15.3014 17.4211 15.4817C17.5267 15.534 17.6118 15.5761 17.6573 15.5981C17.7093 15.6263 17.7572 15.6505 17.8004 15.6724C17.9192 15.7324 18.0028 15.7747 18.0384 15.8345C18.0869 15.916 18.0869 16.3235 17.925 16.7879C17.7548 17.2611 16.9447 17.7013 16.5804 17.7418C16.5489 17.7454 16.5177 17.7496 16.4857 17.7539C16.147 17.7994 15.7299 17.8554 14.1901 17.2448C12.315 16.4976 11.0785 14.6532 10.8285 14.2803C10.8085 14.2504 10.7948 14.23 10.7877 14.2203C10.688 14.0868 9.97752 13.1341 9.97752 12.1502C9.97752 11.2243 10.427 10.7436 10.6365 10.5195L10.6743 10.4788C10.8604 10.275 11.0792 10.2261 11.2088 10.2261C11.3464 10.2261 11.4761 10.2261 11.5978 10.2345Z" fill="black"/>
</svg>
